G04 Layer_Physical_Order=1*
G04 Layer_Color=255*
%FSLAX25Y25*%
%MOIN*%
G70*
G01*
G75*
%ADD10R,0.03937X0.03543*%
%ADD11R,0.03543X0.03150*%
%ADD12R,0.03150X0.03799*%
%ADD13R,0.06299X0.01378*%
%ADD14R,0.03347X0.05118*%
%ADD15R,0.10000X0.10000*%
%ADD16C,0.01000*%
%ADD17C,0.02000*%
%ADD18R,0.05906X0.05906*%
%ADD19C,0.02362*%
D10*
X318000Y198047D02*
D03*
Y203953D02*
D03*
X350000Y201953D02*
D03*
Y196047D02*
D03*
D11*
X316000Y211047D02*
D03*
Y216953D02*
D03*
D12*
Y228150D02*
D03*
Y221850D02*
D03*
X355000Y215150D02*
D03*
Y208850D02*
D03*
Y202150D02*
D03*
Y195850D02*
D03*
X344000Y194850D02*
D03*
Y201150D02*
D03*
X338000D02*
D03*
Y194850D02*
D03*
D13*
X322008Y209661D02*
D03*
Y212221D02*
D03*
Y214779D02*
D03*
Y217339D02*
D03*
X347992D02*
D03*
Y214779D02*
D03*
Y212221D02*
D03*
Y209661D02*
D03*
D14*
X327000Y194669D02*
D03*
X323260Y203331D02*
D03*
X330740Y203331D02*
D03*
D15*
X350000Y185000D02*
D03*
X320000D02*
D03*
Y155000D02*
D03*
X350000D02*
D03*
D16*
X347992Y212221D02*
X351630D01*
X355000Y208850D01*
Y202150D02*
Y208850D01*
X354803Y201953D02*
X355000Y202150D01*
X350000Y201953D02*
X354803D01*
X344000Y201150D02*
Y205669D01*
X347992Y209661D01*
X316000Y228150D02*
X318850D01*
X316000Y216953D02*
Y221850D01*
X322008Y217339D02*
X334339D01*
X334150Y194850D02*
X338000D01*
X330740Y198260D02*
X334150Y194850D01*
X330740Y198260D02*
Y203331D01*
X322008Y214779D02*
X327720D01*
X334339Y217339D02*
X337632Y220632D01*
X338000Y201150D02*
Y209404D01*
X337500Y220632D02*
X337632D01*
X350000Y207000D02*
Y207653D01*
X347992Y209661D02*
X350000Y207653D01*
X322008Y207992D02*
Y209661D01*
Y207992D02*
X323260Y206740D01*
Y203331D02*
Y206740D01*
X322638Y203953D02*
X323260Y203331D01*
X344661Y217339D02*
X347992D01*
X342000Y220000D02*
X344661Y217339D01*
X342000Y220000D02*
Y225000D01*
X340000Y227000D02*
X342000Y225000D01*
X344376Y214779D02*
X347992D01*
X338000Y209404D02*
X342846Y214250D01*
X343846D01*
X344376Y214779D01*
X350000Y196047D02*
X354803D01*
X317000Y188000D02*
X320000Y185000D01*
Y219346D02*
X322008Y217339D01*
X320000Y219346D02*
Y227000D01*
X318850Y228150D02*
X320000Y227000D01*
X317953Y203953D02*
X318000D01*
X354000Y224000D02*
X355000Y223000D01*
Y215150D02*
Y223000D01*
X328500Y209000D02*
X332000D01*
X326658Y210842D02*
Y210972D01*
Y210842D02*
X328500Y209000D01*
X325409Y212221D02*
X326658Y210972D01*
X322008Y212221D02*
X325409D01*
X327720Y214779D02*
X328500Y214000D01*
D17*
X327000Y194669D02*
X336669Y185000D01*
X350000D01*
X317000Y188000D02*
Y198047D01*
X314000Y209047D02*
X315976Y211024D01*
X318000Y203953D02*
X322638D01*
X314000Y200000D02*
Y209047D01*
Y200000D02*
X315953Y198047D01*
X318000D01*
D18*
X340000Y228000D02*
D03*
X330000D02*
D03*
D19*
X332000Y209000D02*
D03*
X337500Y220632D02*
D03*
X350000Y207000D02*
D03*
X342500Y217500D02*
D03*
X350000Y196047D02*
D03*
X317953Y203953D02*
D03*
X316100Y211047D02*
D03*
X354000Y224000D02*
D03*
X328500Y214000D02*
D03*
X343400Y195600D02*
D03*
M02*
