G04 Layer_Physical_Order=2*
G04 Layer_Color=16770953*
%FSLAX25Y25*%
%MOIN*%
G70*
G01*
G75*
%ADD16C,0.01000*%
%ADD17C,0.02000*%
%ADD18R,0.05906X0.05906*%
%ADD19C,0.02362*%
%ADD20C,0.05000*%
%ADD21C,0.06000*%
D16*
X347000Y212000D02*
Y219364D01*
X342500Y207500D02*
X347000Y212000D01*
X324000Y214000D02*
X325500Y212500D01*
X328000Y202000D02*
X332500Y197500D01*
X325500Y212500D02*
X328000D01*
Y202000D02*
Y212500D01*
X337500Y220632D02*
X338868Y222000D01*
X332500Y217500D02*
X335500D01*
X339000Y214000D01*
Y210364D02*
Y214000D01*
X338000Y209364D02*
X339000Y210364D01*
X338000Y203000D02*
Y209364D01*
Y203000D02*
X346000D01*
X350000Y207000D01*
X338868Y222000D02*
X344364D01*
X347000Y219364D01*
X340000Y227000D02*
X346000D01*
X353250Y219750D01*
X350000Y196047D02*
Y202404D01*
X317953Y203953D02*
X318000Y204000D01*
X317953Y202047D02*
Y203953D01*
Y202047D02*
X327000Y193000D01*
X338000D01*
X342500Y197500D01*
X346850Y192000D02*
X354000D01*
X350000Y202404D02*
X353250Y205654D01*
Y219750D01*
X354000Y192000D02*
X356000Y194000D01*
Y222000D01*
X354000Y224000D02*
X356000Y222000D01*
X328000Y212500D02*
X328500Y213000D01*
Y214000D01*
X343400Y195450D02*
X346850Y192000D01*
X343400Y195450D02*
Y195600D01*
D17*
X319000Y227000D02*
X330000D01*
X316000Y211047D02*
Y216000D01*
X316047Y203953D02*
X317953D01*
X316000Y216000D02*
X323000Y223000D01*
X335272D01*
X339272Y227000D01*
X312919Y207081D02*
Y220919D01*
Y207081D02*
X316047Y203953D01*
X312919Y220919D02*
X319000Y227000D01*
D18*
X340000Y228000D02*
D03*
X330000D02*
D03*
D19*
X332000Y209000D02*
D03*
X337500Y220632D02*
D03*
X350000Y207000D02*
D03*
X342500Y217500D02*
D03*
X350000Y196047D02*
D03*
X317953Y203953D02*
D03*
X316100Y211047D02*
D03*
X354000Y224000D02*
D03*
X328500Y214000D02*
D03*
X343400Y195600D02*
D03*
D20*
X323000Y214000D02*
D03*
X322900Y220800D02*
D03*
D21*
X332500Y197500D02*
D03*
X342500D02*
D03*
X332500Y207500D02*
D03*
X342500D02*
D03*
X332500Y217500D02*
D03*
X342500D02*
D03*
M02*
